<?xml version="1.0" standalone="no"?>
<!DOCTYPE svg PUBLIC "-//W3C//DTD SVG 20010904//EN"
 "http://www.w3.org/TR/2001/REC-SVG-20010904/DTD/svg10.dtd">
<svg version="1.0" xmlns="http://www.w3.org/2000/svg"
 width="572.000000pt" height="572.000000pt" viewBox="0 0 572.000000 572.000000"
 preserveAspectRatio="xMidYMid meet">
<metadata>
Created by potrace 1.14, written by Peter Selinger 2001-2017
</metadata>
<g transform="translate(0.000000,572.000000) scale(0.100000,-0.100000)"
fill="#000000" stroke="none">
<path d="M903 5712 c-7 -6 -36 -114 -78 -297 -2 -11 -13 -56 -24 -100 -62
-256 -65 -276 -51 -285 18 -11 36 3 42 33 3 12 36 148 73 302 79 329 81 341
62 348 -7 3 -18 2 -24 -1z"/>
<path d="M355 5516 c-82 -57 -172 -120 -198 -139 l-48 -35 201 -117 c193 -113
236 -129 228 -89 -2 10 -77 60 -169 114 l-167 96 130 90 c174 120 203 143 203
162 0 35 -35 19 -180 -82z"/>
<path d="M943 5604 c-4 -11 3 -24 22 -38 40 -30 169 -120 242 -169 35 -23 62
-45 60 -50 -1 -4 -74 -50 -162 -101 -88 -51 -161 -101 -163 -110 -8 -40 35
-23 228 89 230 134 220 107 75 207 -44 30 -123 85 -175 121 -52 37 -101 67
-108 67 -7 0 -15 -7 -19 -16z"/>
<path d="M4391 5525 c-246 -55 -446 -254 -505 -505 -15 -65 -16 -241 -2 -305
33 -145 144 -308 269 -394 50 -34 161 -89 193 -95 11 -3 39 -9 62 -14 24 -6
83 -10 132 -10 49 0 108 4 132 10 23 5 50 11 59 13 30 6 148 64 191 93 111 77
209 207 254 338 24 68 27 96 28 199 1 136 -4 173 -38 257 -84 208 -261 363
-471 411 -80 19 -224 19 -304 2z"/>
<path d="M2768 4785 c-2 -2 -31 -6 -65 -9 -173 -18 -370 -116 -503 -251 l-55
-56 2 -272 c3 -307 3 -332 -2 -367 -2 -14 -4 -31 -4 -37 -1 -7 -7 -13 -14 -13
-36 0 -67 -130 -45 -190 12 -31 48 -71 59 -64 11 7 29 -30 29 -60 0 -14 4 -26
9 -26 4 0 7 12 4 28 l-3 27 11 -25 c7 -14 25 -54 41 -90 29 -64 111 -186 193
-285 l41 -50 -2 -205 c-1 -113 -2 -211 -3 -218 -1 -10 -23 -12 -88 -10 l-88 3
-46 91 c-56 114 -74 201 -65 317 4 46 9 95 11 108 11 63 9 299 -3 299 -4 0 -5
-25 -2 -56 6 -57 4 -170 -5 -234 -2 -19 -7 -76 -11 -125 -10 -131 20 -250 92
-366 l23 -37 -237 -4 c-253 -5 -277 -9 -392 -68 -153 -78 -271 -226 -319 -398
-18 -66 -20 -104 -21 -399 0 -179 -2 -328 -4 -332 -2 -3 -7 -31 -11 -61 -3
-30 -8 -62 -10 -70 -4 -14 -12 -66 -20 -130 -2 -17 -6 -43 -9 -58 -3 -15 -8
-47 -11 -72 -3 -25 -10 -70 -15 -100 -5 -30 -12 -73 -15 -95 -3 -22 -15 -101
-26 -175 -11 -74 -22 -151 -25 -170 -3 -19 -11 -73 -19 -120 -16 -95 -28 -179
-28 -197 0 -9 -21 -13 -69 -13 -63 0 -68 1 -54 16 10 10 16 33 16 63 0 26 8
63 17 82 16 29 18 70 21 307 l3 272 -306 0 -305 0 0 -44 c0 -41 -2 -44 -32
-50 -134 -27 -187 -229 -90 -343 23 -26 92 -64 104 -57 4 3 11 -3 14 -13 3
-10 14 -39 25 -65 10 -26 19 -67 19 -92 0 -27 6 -51 16 -60 14 -15 -7 -16
-235 -16 l-251 0 0 -75 0 -75 2850 0 2850 0 0 75 0 75 -161 0 -161 0 29 24
c15 13 43 54 62 90 42 82 39 108 -23 204 l-45 71 37 3 c34 3 37 6 40 37 4 41
-7 49 -63 46 -48 -2 -52 10 -7 20 78 17 272 289 289 402 l5 38 -44 -45 c-23
-25 -92 -101 -153 -169 -60 -68 -129 -144 -153 -170 l-43 -46 22 55 c11 30 32
84 46 120 22 55 26 82 26 175 0 90 -3 118 -21 156 -27 61 -42 70 -42 25 0 -19
-4 -37 -8 -40 -4 -2 -6 11 -4 30 6 48 -13 43 -48 -12 -25 -40 -57 -144 -52
-166 1 -5 -2 -8 -7 -8 -5 0 -12 35 -17 78 -4 42 -8 80 -10 85 -1 4 -2 19 -3
35 l-1 27 -20 -25 c-30 -39 -44 -107 -44 -205 1 -79 6 -104 38 -190 20 -55 41
-109 47 -120 7 -14 4 -13 -12 5 -11 14 -42 48 -68 76 -25 28 -82 91 -126 140
-154 170 -165 181 -165 159 0 -32 43 -128 93 -208 52 -82 162 -207 183 -207 8
0 14 -4 14 -8 0 -4 -21 -8 -46 -7 -52 0 -69 -20 -53 -62 7 -19 16 -23 49 -23
l41 0 -19 -27 c-38 -55 -64 -117 -64 -154 1 -41 73 -165 113 -193 22 -15 10
-16 -183 -16 -155 0 -207 3 -211 13 -2 6 -3 34 -1 60 4 43 1 52 -24 75 -75 70
-275 67 -332 -5 l-20 -26 -1 79 c-1 44 -3 126 -5 184 -2 58 -6 386 -9 730 -6
786 -8 840 -33 910 -75 214 -229 360 -440 419 -88 24 -50 21 -257 21 l-176 0
6 68 c10 101 11 262 3 262 -5 0 -9 -58 -9 -130 -1 -71 -3 -134 -4 -140 -1 -5
-3 -21 -4 -35 -1 -25 -1 -25 -101 -25 -55 0 -101 3 -101 8 -1 4 -2 113 -3 242
-1 224 0 235 20 260 32 39 129 191 157 246 13 27 32 74 42 104 23 72 23 72 46
60 15 -8 18 -19 15 -45 -3 -19 -1 -35 3 -35 4 0 8 17 9 37 1 21 8 42 15 48 38
28 54 123 31 189 -14 40 -41 68 -59 62 -6 -2 -10 15 -10 38 0 22 -3 55 -6 73
-4 18 -4 35 0 38 3 4 6 122 6 263 l1 256 -55 59 c-123 133 -321 236 -501 262
-46 7 -197 14 -202 10z m-591 -1277 c-3 -8 -6 -5 -6 6 -1 11 2 17 5 13 3 -3 4
-12 1 -19z m-1737 -2913 c0 -85 -4 -155 -9 -155 -19 0 -76 47 -94 78 -39 67
-15 175 47 213 56 34 56 33 56 -136z m4827 103 c-3 -8 -6 -5 -6 6 -1 11 2 17
5 13 3 -3 4 -12 1 -19z m10 -60 c-3 -7 -5 -2 -5 12 0 14 2 19 5 13 2 -7 2 -19
0 -25z"/>
<path d="M3530 3400 c0 -22 -1 -42 -2 -45 -8 -26 -13 -95 -6 -95 4 0 8 10 8
23 0 12 3 52 6 90 4 37 4 67 0 67 -3 0 -6 -18 -6 -40z"/>
<path d="M3507 3195 c-4 -33 -10 -73 -12 -90 -16 -102 -21 -155 -13 -155 4 0
8 12 8 27 0 15 7 76 16 135 8 59 14 116 12 125 -2 10 -7 -9 -11 -42z"/>
</g>
</svg>
